#!OML:ASF F:\VICON\USERDATA\Patient Classification 1\PLAYGROUND\JustinFriday\JustinFriday.ASF
:FULLY-SPECIFIED
:DEGREES
3493
root 12.9544 27.1848 47.2138 -720.98 -177.19 7.63025
lowerback 5.17894 -0.0688571 3.88619
upperback 7.05473 -0.914059 3.12415
thorax 4.42874 -0.697091 1.04883
lowerneck -16.8357 -1.51496 -4.75055
upperneck 1.41405 -1.68299 4.1632
head 3.16213 -0.820557 1.90929
rclavicle 1.26787e-014 1.78906e-014
rhumerus 71.3694 -0.513138 -68.8535
rradius 74.6401
rwrist 12.2649
rhand -21.2488 -23.6999
rfingers 7.12502
rthumb 5.13408 -413.618
lclavicle 1.26787e-014 1.78906e-014
lhumerus 68.1277 -5.28269 67.9575
lradius 75.0452
lwrist -26.2486
lhand -17.312 -9.52334
lfingers 7.12502
lthumb 8.93424 20.2675
rfemur -13.3033 5.16847 26.5622
rtibia 28.9769
rfoot -27.8019 -11.0674
rtoes 6.37348
lfemur -14.1321 4.45967 -11.8763
ltibia 31.883
lfoot -29.0214 -3.81406
ltoes -1.13194
3494
root 12.9395 27.1971 47.1515 -721.145 -177.022 7.11493
lowerback 5.11226 -0.149699 3.60463
upperback 7.16926 -1.02755 2.92737
thorax 4.58319 -0.757697 1.00171
lowerneck -16.581 -1.54167 -4.47568
upperneck 0.860767 -1.76146 3.72173
head 3.32757 -0.893384 1.91037
rclavicle -7.11276e-015 4.14963e-015
rhumerus 71.1658 -0.498249 -68.8753
rradius 75.2488
rwrist 12.5027
rhand -20.9276 -23.6173
rfingers 7.12502
rthumb 5.44425 -413.527
lclavicle -7.11276e-015 4.14963e-015
lhumerus 66.8211 -5.32851 67.8476
lradius 76.6489
lwrist -26.3434
lhand -18.7888 -10.0963
lfingers 7.12502
lthumb 7.50901 19.7505
rfemur -12.9864 4.81388 25.9271
rtibia 29.2359
rfoot -28.21 -10.839
rtoes 6.46773
lfemur -13.6065 3.95558 -12.548
ltibia 31.7092
lfoot -28.9986 -3.42673
ltoes -1.11122
3495
root 12.9719 27.1929 47.1199 -721.534 -178.675 5.5968
lowerback 5.8924 0.519574 1.4121
upperback 7.29862 -0.144831 2.63587
thorax 4.26876 -0.418116 1.91738
lowerneck -16.501 -1.54011 -4.61649
upperneck 0.976515 -1.73191 3.84369
head 3.35721 -0.869821 1.98186
rclavicle 3.37934e-015 3.17807e-014
rhumerus 70.9274 -0.553234 -68.7
rradius 75.8762
rwrist 12.6011
rhand -20.8498 -23.7666
rfingers 7.12502
rthumb 5.51935 -413.675
lclavicle 3.37934e-015 3.17807e-014
lhumerus 65.363 -5.45319 67.8094
lradius 78.3615
lwrist -26.3908
lhand -20.7641 -11.0151
lfingers 7.12502
lthumb 5.60212 18.8908
rfemur -12.5091 5.86822 24.4261
rtibia 29.5762
rfoot -28.3574 -10.2748
rtoes 5.64449
lfemur -12.3656 4.95092 -14.0735
ltibia 31.4514
lfoot -29.1268 -2.62182
ltoes -0.87569
3496
root 12.9457 27.1987 47.0733 -721.478 -177.209 5.51348
lowerback 5.64549 -0.0319928 1.82146
upperback 7.27723 -0.860453 2.54077
thorax 4.39756 -0.745437 1.60134
lowerneck -16.5764 -1.51695 -4.67336
upperneck 1.51655 -1.68976 4.08714
head 3.15325 -0.821343 1.87394
rclavicle 1.35422e-015 -3.78436e-014
rhumerus 70.7011 -0.597949 -68.5286
rradius 76.559
rwrist 12.6312
rhand -20.7141 -24.2384
rfingers 7.12502
rthumb 5.65043 -414.143
lclavicle 1.35422e-015 -3.78436e-014
lhumerus 63.8317 -5.57958 67.5941
lradius 79.9615
lwrist -26.1838
lhand -23.1128 -11.8825
lfingers 7.12502
lthumb 3.33416 18.0712
rfemur -12.4288 4.84336 24.1868
rtibia 29.814
rfoot -28.6903 -10.52
rtoes 5.17064
lfemur -12.4337 3.64987 -14.3343
ltibia 31.2669
lfoot -28.7866 -2.825
ltoes 0.169367
3497
root 12.9598 27.2067 47.0189 -721.288 -178.128 5.83128
lowerback 5.28563 0.229101 1.97546
upperback 7.28628 -0.519887 2.58673
thorax 4.60407 -0.567237 1.55444
lowerneck -16.7161 -1.49882 -4.60279
upperneck 1.95027 -1.65622 4.04265
head 3.30538 -0.794826 1.8508
rclavicle 1.73564e-014 1.76794e-014
rhumerus 70.4726 -0.547335 -68.4939
rradius 77.2287
rwrist 12.6056
rhand -20.6326 -24.5425
rfingers 7.12502
rthumb 5.72906 -414.445
lclavicle 1.73564e-014 1.76794e-014
lhumerus 62.1749 -5.7791 66.9139
lradius 81.4167
lwrist -24.9346
lhand -26.556 -12.4604
lfingers 7.12502
lthumb 0.0087755 17.5193
rfemur -12.5862 5.44159 24.6056
rtibia 29.9658
rfoot -28.63 -10.224
rtoes 5.22337
lfemur -12.2656 4.42594 -13.8693
ltibia 31.2187
lfoot -28.6825 -2.79537
ltoes 0.915696
3498
root 12.9613 27.2128 46.971 -721.323 -178.187 5.77111
lowerback 5.3052 0.199902 1.9739
upperback 7.29595 -0.554999 2.51375
thorax 4.60271 -0.58217 1.4801
lowerneck -16.7246 -1.45824 -4.5496
upperneck 2.18016 -1.60144 4.02577
head 3.37459 -0.761573 1.84129
rclavicle 3.98491e-015 3.58445e-014
rhumerus 70.211 -0.443279 -68.4692
rradius 77.7949
rwrist 12.4429
rhand -20.8085 -24.3945
rfingers 7.12502
rthumb 5.55922 -414.302
lclavicle 3.98491e-015 3.58445e-014
lhumerus 60.3566 -5.98161 66.1759
lradius 82.9883
lwrist -23.5066
lhand -30.2669 -13.6088
lfingers 7.12502
lthumb -3.57522 16.3409
rfemur -12.3421 5.4294 24.5649
rtibia 29.8855
rfoot -28.5639 -10.3033
rtoes 4.73941
lfemur -12.1053 4.56173 -13.9166
ltibia 31.3523
lfoot -28.8032 -2.74107
ltoes 0.0391364
3499
root 12.9466 27.2211 46.9263 -721.257 -177.215 5.76376
lowerback 5.15213 -0.192936 2.30148
upperback 7.26399 -1.06343 2.43593
thorax 4.65682 -0.811233 1.22047
lowerneck -16.5083 -1.3966 -4.51782
upperneck 1.90885 -1.53161 3.93029
head 3.25387 -0.737398 1.8127
rclavicle 7.67806e-015 -3.0265e-014
rhumerus 69.8296 -0.424594 -68.1707
rradius 78.7115
rwrist 12.0243
rhand -20.9109 -24.5921
rfingers 7.12502
rthumb 5.46035 -414.502
lclavicle 7.67806e-015 -3.0265e-014
lhumerus 58.4084 -6.0049 66.0821
lradius 84.7655
lwrist -23.7481
lhand -32.1696 -15.2206
lfingers 7.12502
lthumb -5.4125 14.6903
rfemur -12.1336 4.66763 24.4875
rtibia 29.7131
rfoot -28.6269 -10.5772
rtoes 4.42185
lfemur -12.3212 3.90208 -14.0156
ltibia 31.5589
lfoot -28.91 -2.87476
ltoes -0.870476
3500
root 12.9487 27.2261 46.877 -721.211 -177.024 6.02417
lowerback 4.92299 -0.308004 2.61956
upperback 7.27301 -1.22246 2.46204
thorax 4.79382 -0.874 1.06751
lowerneck -16.4647 -1.27643 -4.60802
upperneck 2.09012 -1.35638 4.0822
head 3.29779 -0.638402 1.88767
rclavicle 1.32689e-014 9.61621e-015
rhumerus 69.4857 -0.42805 -67.7733
rradius 79.5207
rwrist 11.6822
rhand -21.0906 -25.0687
rfingers 7.12502
rthumb 5.28686 -414.983
lclavicle 1.32689e-014 9.61621e-015
lhumerus 56.3622 -6.06564 66.2914
lradius 86.6019
lwrist -24.3348
lhand -32.7663 -16.5869
lfingers 7.12502
lthumb -5.98855 13.3085
rfemur -12.0212 4.58706 24.7935
rtibia 29.7154
rfoot -28.735 -10.5875
rtoes 4.5504
lfemur -12.3151 3.95486 -13.6875
ltibia 31.6073
lfoot -28.835 -3.1517
ltoes -0.640764
3501
root 12.9475 27.2356 46.8114 -720.823 -177.432 6.77601
lowerback 4.08012 -0.236021 3.47022
upperback 7.26298 -1.15574 2.58923
thorax 5.25589 -0.792495 0.711688
lowerneck -15.974 -1.26019 -4.50287
upperneck 1.40396 -1.36001 3.84562
head 3.38881 -0.667652 1.99437
rclavicle -3.72721e-015 -3.5334e-014
rhumerus 69.0807 -0.383163 -67.413
rradius 80.3518
rwrist 11.6205
rhand -21.2838 -25.4781
rfingers 7.12502
rthumb 5.10037 -415.397
lclavicle -3.72721e-015 -3.5334e-014
lhumerus 54.3769 -6.20486 66.3565
lradius 88.3024
lwrist -24.0464
lhand -34.3085 -17.7851
lfingers 7.12502
lthumb -7.47735 12.0627
rfemur -12.3083 4.84744 25.5836
rtibia 29.6367
rfoot -28.5638 -10.3661
rtoes 4.25827
lfemur -12.6325 4.31354 -12.844
ltibia 31.7121
lfoot -28.6412 -3.41147
ltoes -0.395282
3502
root 12.9498 27.2303 46.7849 -721.242 -177.348 5.76042
lowerback 4.84401 -0.276622 2.42113
upperback 7.32414 -1.17842 2.29539
thorax 4.89004 -0.854319 1.00355
lowerneck -16.2544 -1.31827 -4.50182
upperneck 2.23475 -1.42131 4.00182
head 3.31154 -0.668106 1.84159
rclavicle -7.00716e-015 -7.35503e-015
rhumerus 68.5454 -0.287698 -67.1788
rradius 81.3145
rwrist 11.5758
rhand -21.4312 -25.5354
rfingers 7.12502
rthumb 4.95804 -415.457
lclavicle -7.00716e-015 -7.35503e-015
lhumerus 52.4842 -6.31503 66.4901
lradius 89.6764
lwrist -23.6146
lhand -37.2147 -19.2456
lfingers 7.12502
lthumb -10.2818 10.4831
rfemur -11.5845 4.87236 24.4933
rtibia 29.5664
rfoot -28.6054 -10.3013
rtoes 4.49809
lfemur -11.9896 4.11494 -13.9703
ltibia 31.8337
lfoot -28.7222 -3.31568
ltoes -0.795607
